:version 1.10
:name ASF
:units
  mass 1
  length 1
  angle deg
:documentation
  ASF file generated by Kaydara
:root
  axis xyz
  order  tx ty tz rx ry rz
  position 0 0 0
  orientation 0 0 0
:bonedata
  begin
    id 1
    name SpineDummy
    direction 0.999998 -0.00179978 1.38929e-006
    length 3.60008
    axis 0 0 0 xyz
  end
  begin
    id 2
    name Spine
    direction 0.964365 0.262802 0.0305839
    length 8.13928
    axis 1.33928 -1.75354 15.2838 xyz
    dof rx ry rz
  end
  begin
    id 3
    name Spine1
    direction 0.811168 0.572065 0.12144
    length 7.14954
    axis 2.2224 -6.9761 35.2157 xyz
    dof rx ry rz
  end
  begin
    id 4
    name Neck
    direction 0 0 0
    length 0
    axis 2.2224 -6.9761 35.2157 xyz
    dof rx ry rz
  end
  begin
    id 5
    name HeadDummy
    direction 0.810939 0.572387 0.121455
    length 3.55534
    axis 2.2224 -6.9761 35.2157 xyz
  end
  begin
    id 6
    name Head
    direction 0.998226 -0.000232542 0.0595419
    length 7.35666
    axis -3.03688 -3.41352 -0.0133467 xyz
    dof rx ry rz
  end
  begin
    id 7
    name R_ClavicleDummy
    direction 0.531669 -0.194489 -0.824319
    length 2.49392
    axis 2.2224 -6.9761 35.2157 xyz
  end
  begin
    id 8
    name R_Clavicle
    direction -0.155119 0.0480802 -0.986725
    length 4.485
    axis -54.2764 80.6538 162.779 xyz
    dof rx ry rz
  end
  begin
    id 9
    name R_UpperArm
    direction -0.955567 0.200068 -0.216484
    length 10.1122
    axis -72.9943 12.5026 168.175 xyz
    dof rx ry rz
  end
  begin
    id 10
    name R_Forearm
    direction -0.61433 0.385743 0.688332
    length 9.39148
    axis -117.015 -43.4982 147.875 xyz
    dof rx ry rz
  end
  begin
    id 11
    name R_Hand
    direction -0.699429 0.0170333 0.714499
    length 3.66324
    axis -45.0303 -36.7097 175.478 xyz
    dof rx ry rz
  end
  begin
    id 12
    name L_ClavicleDummy
    direction 0.40287 -0.36502 0.839319
    length 2.49392
    axis 2.2224 -6.9761 35.2157 xyz
  end
  begin
    id 13
    name L_Clavicle
    direction -0.231271 -0.0726419 0.970174
    length 4.485
    axis 18.4357 -75.9711 -162.563 xyz
    dof rx ry rz
  end
  begin
    id 14
    name L_UpperArm
    direction -0.917494 0.144359 0.370629
    length 10.1122
    axis 56.0417 -21.7544 171.058 xyz
    dof rx ry rz
  end
  begin
    id 15
    name L_Forearm
    direction -0.496786 0.615074 -0.612281
    length 9.39148
    axis 89.8094 37.7546 128.927 xyz
    dof rx ry rz
  end
  begin
    id 16
    name L_Hand
    direction -0.409932 0.64962 -0.640274
    length 3.66324
    axis -0.424369 32.133 128.52 xyz
    dof rx ry rz
  end
  begin
    id 17
    name L_ThighDummy
    direction -1.84081e-006 1.87549e-006 1
    length 3.13049
    axis 0 0 0 xyz
  end
  begin
    id 18
    name L_Thigh
    direction -0.947739 0.307978 0.083308
    length 17.9961
    axis 173.219 -4.77873 161.998 xyz
    dof rx ry rz
  end
  begin
    id 19
    name L_Calf
    direction -0.728814 -0.684427 0.0197583
    length 13.3367
    axis 167.331 -1.13214 -136.799 xyz
    dof rx ry rz
  end
  begin
    id 20
    name L_Foot
    direction -0.9028 0.418719 0.0981191
    length 5.8674
    axis 163.436 11.5135 -155.37 xyz
    dof rx ry rz
  end
  begin
    id 21
    name L_Toe0
    direction -0.35341 0.886259 0.299411
    length 4.75286
    axis 169.316 -17.4222 111.74 xyz
    dof rx ry rz
  end
  begin
    id 22
    name R_ThighDummy
    direction 9.32778e-007 -8.82053e-007 -1
    length 3.13049
    axis 0 0 0 xyz
  end
  begin
    id 23
    name R_Thigh
    direction -0.925064 0.37528 -0.0585023
    length 17.9961
    axis -178.698 3.35385 157.919 xyz
    dof rx ry rz
  end
  begin
    id 24
    name R_Calf
    direction -0.68969 -0.718776 -0.0876886
    length 13.3367
    axis -160.504 5.03065 -133.817 xyz
    dof rx ry rz
  end
  begin
    id 25
    name R_Foot
    direction -0.857405 0.418858 -0.299022
    length 5.8674
    axis -161.328 4.38911 -154.413 xyz
    dof rx ry rz
  end
  begin
    id 26
    name R_Toe0
    direction -0.100745 0.952789 -0.286433
    length 4.75286
    axis 171.683 16.6445 96.0359 xyz
    dof rx ry rz
  end
:hierarchy
  begin
    root SpineDummy L_ThighDummy R_ThighDummy
    SpineDummy Spine
    Spine Spine1
    Spine1 Neck
    Neck HeadDummy R_ClavicleDummy L_ClavicleDummy
    HeadDummy Head
    R_ClavicleDummy R_Clavicle
    R_Clavicle R_UpperArm
    R_UpperArm R_Forearm
    R_Forearm R_Hand
    L_ClavicleDummy L_Clavicle
    L_Clavicle L_UpperArm
    L_UpperArm L_Forearm
    L_Forearm L_Hand
    L_ThighDummy L_Thigh
    L_Thigh L_Calf
    L_Calf L_Foot
    L_Foot L_Toe0
    R_ThighDummy R_Thigh
    R_Thigh R_Calf
    R_Calf R_Foot
    R_Foot R_Toe0
  end

:SAMPLES-PER-SECOND 30
:FULLY-SPECIFIED
:DEGREES
191
root  -2.07668 30.5772 35.3106 -91.5442 0.206963 83.882
Spine  -1.29898 0.508095 -6.89985
Spine1  -1.57445 0.252719 11.0313
Neck  3.97569e-016 0 -2.38542e-015
Head  10.7416 -3.28468 8.79658
R_Clavicle  0.361495 -15.8848 1.10853
R_UpperArm  30.1243 -5.74138 33.2569
R_Forearm  4.34774 -35.5617 21.9274
R_Hand  -0.557869 4.96561 -14.0655
L_Clavicle  -0.480542 16.714 -1.07922
L_UpperArm  -13.2625 -6.09396 5.01876
L_Forearm  -1.42377 14.6357 17.5437
L_Hand  -0.410922 1.70748 -6.32768
L_Thigh  -19.88 -12.5045 8.83597
L_Calf  6.59081 -1.14167 8.44675
L_Foot  9.49118 19.0536 12.9159
L_Toe0  0.480867 0.0350165 -6.15764
R_Thigh  24.4501 -7.83821 -18.221
R_Calf  4.67207 -5.64186 -17.8069
R_Foot  0.588173 0.29798 -4.50113
R_Toe0  -1.78853 -0.272788 -17.3235
192
root  -1.90019 31.0233 33.8526 -89.431 -0.315792 83.589
Spine  -1.937 -1.57313 -7.88215
Spine1  -1.92207 3.07065 11.1744
Neck  3.97569e-016 0 -2.38542e-015
Head  10.5405 -3.01521 10.8584
R_Clavicle  0.383102 -17.4018 1.26959
R_UpperArm  32.4199 -8.98027 33.799
R_Forearm  -0.595404 -37.0894 22.6447
R_Hand  -0.757015 4.94273 -15.9962
L_Clavicle  -0.489133 16.9188 -1.15314
L_UpperArm  -4.67393 -3.9739 0.128189
L_Forearm  3.47453 13.3322 15.8739
L_Hand  -0.322133 2.38966 -4.48628
L_Thigh  -18.2939 -12.6649 4.03785
L_Calf  8.24908 -1.44633 10.8352
L_Foot  8.91244 17.4225 12.8928
L_Toe0  0.685228 0.0313019 -5.97658
R_Thigh  20.1687 -8.26036 -13.2881
R_Calf  3.46773 -7.54981 -24.2383
R_Foot  0.624783 1.49715 -1.94517
R_Toe0  -1.78853 -0.272788 -17.3235
193
root  -1.71731 31.6407 32.3358 -88.5582 -0.799157 83.6289
Spine  -2.71618 -3.74207 -8.76139
Spine1  -2.51015 6.17297 10.0596
Neck  3.97569e-016 0 -2.38542e-015
Head  11.9171 -3.48309 14.25
R_Clavicle  0.389551 -18.4487 1.20771
R_UpperArm  34.0249 -11.1114 34.9774
R_Forearm  -2.36166 -37.6281 23.1725
R_Hand  -0.803541 4.73837 -16.3713
L_Clavicle  -0.486149 16.8395 -1.17896
L_UpperArm  1.14483 -1.40953 -2.59768
L_Forearm  8.60198 11.335 13.374
L_Hand  -0.175905 3.08246 -2.19258
L_Thigh  -17.9843 -11.7049 -0.905704
L_Calf  10.9825 -1.85954 14.0635
L_Foot  7.65724 15.2189 11.5293
L_Toe0  1.81914 -0.000231077 -4.97007
R_Thigh  15.2962 -7.89694 -8.25879
R_Calf  3.03811 -7.87182 -25.3893
R_Foot  0.176906 0.0749474 -1.36745
R_Toe0  -1.78853 -0.272788 -17.3235
194
root  -1.51291 32.3884 30.7017 -87.095 -1.26675 84.0698
Spine  -4.11314 -6.07555 -10.1157
Spine1  -3.57399 10.2602 9.19591
Neck  3.97569e-016 0 -2.38542e-015
Head  13.7051 -4.27023 18.0047
R_Clavicle  0.395403 -19.1059 1.21177
R_UpperArm  33.8891 -12.239 36.5151
R_Forearm  0.216285 -36.5997 22.9352
R_Hand  -0.844191 4.69902 -16.7578
L_Clavicle  -0.469343 16.4148 -1.21824
L_UpperArm  4.98815 0.481102 -4.21004
L_Forearm  10.6635 9.58698 11.2354
L_Hand  -0.0874319 3.43488 -0.975918
L_Thigh  -18.1757 -9.83692 -5.84248
L_Calf  14.7756 -2.30672 17.5182
L_Foot  5.54787 11.9786 8.37884
L_Toe0  3.38291 -0.121192 -3.56933
R_Thigh  12.8788 -7.59632 -4.49732
R_Calf  3.48155 -6.67399 -21.3076
R_Foot  -0.229086 -1.0737 -0.637207
R_Toe0  -1.78853 -0.272788 -17.3235
195
root  -1.31992 33.0889 29.0065 -84.6998 -1.68187 84.4558
Spine  -5.92911 -9.01454 -11.9132
Spine1  -4.87511 15.189 8.95935
Neck  3.97569e-016 0 -2.38542e-015
Head  14.8835 -5.0064 21.7505
R_Clavicle  0.400178 -19.3819 1.3018
R_UpperArm  31.6797 -12.8174 38.2785
R_Forearm  5.68139 -34.0927 22.1906
R_Hand  -0.947413 4.85872 -17.8291
L_Clavicle  -0.422225 15.2237 -1.09842
L_UpperArm  7.74525 1.8354 -6.00423
L_Forearm  8.67054 9.02399 10.555
L_Hand  -0.129573 3.32359 -1.52213
L_Thigh  -17.6745 -7.81323 -10.4104
L_Calf  18.4329 -2.73424 20.7972
L_Foot  3.11627 8.10275 4.09883
L_Toe0  5.98026 -0.473219 -1.22125
R_Thigh  13.1307 -8.28671 -2.34275
R_Calf  3.74096 -4.16402 -13.0978
R_Foot  -0.0655423 -0.129836 0.228254
R_Toe0  -1.78853 -0.272788 -17.3235
